<svg xmlns="http://www.w3.org/2000/svg" viewBox="0 0 36 36" width="36" height="36"><svg x="4" y="4" width="28" height="28" viewBox="0 0 100 100"><path d="M8 60c0-23 19-40 42-40s42 17 42 40c0 13-19 23-42 23S8 73 8 60z" fill="#FBF0DF" stroke="#1D2021" stroke-width="5"/><path d="M40 24q5 8 0 15M53 22q5 8 0 15M65 26q4 7 0 12" stroke="#E2C9A2" stroke-width="3.5" fill="none" stroke-linecap="round"/><path d="M20 46q7-13 22-18" stroke="#fff" stroke-width="4" fill="none" stroke-linecap="round"/><ellipse cx="26" cy="66" rx="7" ry="4" fill="#F4A6B7"/><ellipse cx="74" cy="66" rx="7" ry="4" fill="#F4A6B7"/><ellipse cx="38" cy="58" rx="4.5" ry="5.5" fill="#1D2021"/><ellipse cx="62" cy="58" rx="4.5" ry="5.5" fill="#1D2021"/><circle cx="39.5" cy="56" r="1.6" fill="#fff"/><circle cx="63.5" cy="56" r="1.6" fill="#fff"/><path d="M44 65q6 9 12 0z" fill="#B71422" stroke="#1D2021" stroke-width="2" stroke-linejoin="round"/></svg>
</svg>